<?xml version="1.0" encoding="utf-8"?>
<!-- Generator: Adobe Illustrator 24.0.2, SVG Export Plug-In . SVG Version: 6.00 Build 0)  -->
<svg version="1.1" id="Calque_1" xmlns="http://www.w3.org/2000/svg" xmlns:xlink="http://www.w3.org/1999/xlink" x="0px" y="0px"
	 viewBox="0 0 600 138" style="enable-background:new 0 0 600 138;" xml:space="preserve">
<style type="text/css">
	.st0{fill:#E50060;}
	.st1{fill:#FFFFFF;}
	.st2{fill:url(#SVGID_1_);}
	.st3{fill:#193F77;}
</style>
<g>
	<path class="st0" d="M21.99,27.63v10.19h8.52c3.85,0,6.97,3.12,6.97,6.97v0c0,3.85-3.12,6.97-6.97,6.97h-8.52V79.4
		c0,2.46,0.64,4.39,1.91,5.78c1.27,1.39,2.78,2.08,4.53,2.08c1.3,0,2.52-0.23,3.66-0.68c3.26-1.3,6.98,0.24,8.63,3.34l0,0
		c1.78,3.34,0.63,7.49-2.61,9.44c-3.9,2.34-7.95,3.51-12.12,3.51c-6.16,0-11.36-2.02-15.61-6.08C6.12,92.74,4,87.22,4,80.23v-52.6
		c0-4.97,4.03-8.99,8.99-8.99h0C17.96,18.64,21.99,22.67,21.99,27.63z"/>
	<path class="st0" d="M196.11,29.66c-2.03-2.03-3.04-4.51-3.04-7.45c0-2.94,1.01-5.42,3.04-7.45c2.03-2.02,4.51-3.04,7.45-3.04
		c2.94,0,5.42,1.01,7.45,3.04c2.03,2.03,3.04,4.51,3.04,7.45c0,2.94-1.01,5.42-3.04,7.45c-2.03,2.02-4.51,3.04-7.45,3.04
		C200.62,32.7,198.14,31.68,196.11,29.66z"/>
	<path class="st0" d="M203.56,101.92L203.56,101.92c-4.93,0-8.94-4-8.94-8.94V46.76c0-4.93,4-8.94,8.94-8.94h0
		c4.93,0,8.94,4,8.94,8.94v46.23C212.49,97.92,208.49,101.92,203.56,101.92z"/>
	<path class="st0" d="M176.45,43.9c-4.57-4.77-10.23-7.15-16.98-7.15c-6.75,0-12.82,2.74-18.22,8.22c-0.84-4.09-4.44-7.17-8.75-7.17
		c-4.93,0-8.94,4.02-8.94,8.98v46.48c0,4.96,4,8.98,8.94,8.98c4.93,0,8.94-4.02,8.94-8.98V66.18c0-5,1.14-8.8,3.8-11.38
		c2.66-2.58,5.78-3.87,9.35-3.87c7.23,0,10.84,4.93,10.84,14.77v27.28c0,4.93,4,8.94,8.94,8.94c4.93,0,8.94-4,8.94-8.94V62.96
		C183.3,55.02,181.02,48.66,176.45,43.9z"/>
	<path class="st0" d="M242.51,27.63v10.19h8.52c3.85,0,6.97,3.12,6.97,6.97v0c0,3.85-3.12,6.97-6.97,6.97h-8.52V79.4
		c0,2.46,0.64,4.39,1.91,5.78c1.27,1.39,2.78,2.08,4.53,2.08c1.3,0,2.52-0.23,3.66-0.68c3.26-1.3,6.98,0.24,8.63,3.34v0
		c1.78,3.34,0.63,7.49-2.61,9.44c-3.9,2.34-7.95,3.51-12.12,3.51c-6.16,0-11.36-2.02-15.61-6.08c-4.25-4.05-6.37-9.57-6.37-16.56
		v-52.6c0-4.97,4.03-8.99,8.99-8.99h0C238.49,18.64,242.51,22.67,242.51,27.63z"/>
	<path class="st0" d="M277.48,18.64c4.97,0,8.99,4.03,8.99,8.99V79.4c0,2.46,0.64,4.39,1.91,5.78c1.27,1.39,2.78,2.08,4.53,2.08
		c1.3,0,2.52-0.23,3.66-0.68c3.26-1.3,6.98,0.24,8.63,3.34v0c1.78,3.34,0.63,7.49-2.61,9.44c-3.9,2.34-7.95,3.51-12.12,3.51
		c-6.16,0-11.36-2.02-15.61-6.08c-4.25-4.05-6.37-9.57-6.37-16.56v-52.6C268.48,22.67,272.51,18.64,277.48,18.64L277.48,18.64z"/>
	<path class="st0" d="M425.15,36.75c7.78,0,14.57,3.04,20.37,9.11c5.8,6.08,8.7,13.88,8.7,23.41s-2.98,17.51-8.94,23.95
		c-5.96,6.43-12.73,9.65-20.31,9.65c-7.59,0-13.88-3.14-18.88-9.41v0c0,4.67-3.79,8.46-8.46,8.46h-0.95c-4.67,0-8.46-3.79-8.46-8.46
		V22.45c0-4.94,4-8.94,8.94-8.94l0,0c4.94,0,8.94,4,8.94,8.94v22.52C411.01,39.49,417.37,36.75,425.15,36.75z M405.85,69.93
		c0,5.2,1.45,9.45,4.35,12.75c2.9,3.3,6.41,4.94,10.54,4.94c4.13,0,7.74-1.65,10.84-4.94c3.1-3.3,4.65-7.53,4.65-12.69
		c0-5.16-1.51-9.49-4.53-12.99c-3.02-3.5-6.63-5.24-10.84-5.24c-4.21,0-7.76,1.73-10.66,5.18C407.3,60.4,405.85,64.73,405.85,69.93z
		"/>
	<path class="st0" d="M365.84,37.87c-3.61,0-6.7,2.21-8.11,5.38v-0.08c-4.77-4.29-10.36-6.43-16.8-6.43
		c-8.26,0-15.53,2.98-21.8,8.94c-6.28,5.96-9.41,13.92-9.41,23.89c0,9.97,3.06,18.01,9.17,24.13c6.12,6.12,13.26,9.17,21.45,9.17
		c6.45,0,12.21-2.03,17.26-6.09c1.29,3.1,4.28,5.27,7.77,5.27h0.95c4.67,0,8.46-3.9,8.46-8.7v-36.5v-9.78
		C374.77,41.99,370.77,37.87,365.84,37.87z M353.68,82.8c-2.86,3.3-6.36,4.94-10.48,4.94c-4.13,0-7.74-1.65-10.84-4.94
		c-3.1-3.29-4.65-7.56-4.65-12.81c0-5.24,1.51-9.59,4.53-13.05c3.02-3.45,6.63-5.18,10.84-5.18c4.21,0,7.74,1.75,10.6,5.24
		c2.86,3.5,4.29,7.84,4.29,13.05C357.97,75.25,356.54,79.5,353.68,82.8z"/>
	<path class="st0" d="M101.46,37.87c-3.61,0-6.7,2.21-8.11,5.38v-0.08c-4.77-4.29-10.37-6.43-16.8-6.43
		c-8.26,0-15.53,2.98-21.8,8.94c-6.28,5.96-9.41,13.92-9.41,23.89c0,9.97,3.06,18.01,9.17,24.13c6.12,6.12,13.26,9.17,21.45,9.17
		c6.45,0,12.21-2.03,17.26-6.09c1.29,3.1,4.28,5.27,7.77,5.27h0.95c4.67,0,8.46-3.9,8.46-8.7v-36.5v-9.78
		C110.4,41.99,106.39,37.87,101.46,37.87z M89.3,82.8c-2.86,3.3-6.36,4.94-10.48,4.94c-4.13,0-7.74-1.65-10.84-4.94
		c-3.1-3.29-4.65-7.56-4.65-12.81c0-5.24,1.51-9.59,4.53-13.05c3.02-3.45,6.63-5.18,10.84-5.18c4.21,0,7.74,1.75,10.6,5.24
		c2.86,3.5,4.29,7.84,4.29,13.05C93.59,75.25,92.16,79.5,89.3,82.8z"/>
	<g>
		<g>
			<path class="st1" d="M565.1,36.93c-4.1,0-7.44,3.34-7.44,7.44v49.81c0,4.1,3.34,7.44,7.44,7.44s7.43-3.34,7.43-7.44V44.37
				C572.53,40.27,569.2,36.93,565.1,36.93z"/>
			<path class="st1" d="M495.84,101.61c2.73,0,5.2-1.61,6.29-4.11l18.27-41.74l17.85,41.69c1.08,2.53,3.56,4.17,6.32,4.17h0.66
				c2.33,0,4.48-1.16,5.75-3.11c1.27-1.95,1.48-4.38,0.54-6.51l-21.34-48.76c-1.68-3.83-5.46-6.31-9.64-6.31
				c-4.18,0-7.97,2.48-9.64,6.31l-21.34,48.76c-0.93,2.13-0.73,4.56,0.54,6.51C491.36,100.45,493.51,101.61,495.84,101.61z"/>
		</g>
		<g>
			<linearGradient id="SVGID_1_" gradientUnits="userSpaceOnUse" x1="464.5597" y1="68.9864" x2="596.7755" y2="68.9864">
				<stop  offset="0" style="stop-color:#E50060"/>
				<stop  offset="0.0318" style="stop-color:#E00262"/>
				<stop  offset="1" style="stop-color:#554595"/>
			</linearGradient>
			<circle class="st2" cx="530.67" cy="68.99" r="66.11"/>
			<g>
				<path class="st1" d="M564.87,36.78c-4.08,0-7.41,3.32-7.41,7.41v49.61c0,4.08,3.32,7.41,7.41,7.41s7.4-3.32,7.4-7.41V44.18
					C572.28,40.1,568.96,36.78,564.87,36.78z"/>
				<path class="st1" d="M495.9,101.2c2.72,0,5.18-1.61,6.27-4.1l18.19-41.57l17.78,41.52c1.08,2.52,3.55,4.15,6.29,4.15h0.66
					c2.32,0,4.46-1.16,5.73-3.1c1.27-1.94,1.47-4.36,0.54-6.49L530.1,43.06c-1.67-3.81-5.44-6.28-9.6-6.28
					c-4.17,0-7.94,2.47-9.6,6.28l-21.26,48.56c-0.93,2.12-0.73,4.55,0.54,6.49C491.44,100.04,493.58,101.2,495.9,101.2z"/>
			</g>
			<path class="st3" d="M462.21,93.03c0-5.38,3.99-8.91,9-8.91c5.01,0,9,3.53,9,8.91c0,5.29-3.99,9.09-9,9.09
				C466.2,102.12,462.21,98.31,462.21,93.03z"/>
		</g>
	</g>
</g>
</svg>
